# xmcd
#
# Track frame offsets:
#	150
#	8635
#	21343
#	34398
#	47237
#	48749
#	60947
#	73626
#	86905
#	93535
#	107590
#	121989
#	136407
#	142601
#	157501
#
# Disc length: 2295 seconds
#
# Revision: 1
# Processed by: cddbd v1.5.2PL0 Copyright (c) Steve Scherf et al.
# Submitted via: audiograbber 1.83.01
#
DISCID=c108f50f
DTITLE=Patrick Fiori - Les choses de la vie
DYEAR=2009
DGENRE=Chanson
TTITLE0=Souvenir d'Espagne
TTITLE1=La ballade des jeux interdits
TTITLE2=Parlami d'amor Mariü
TTITLE3=Les parapluies de Cherbourg
TTITLE4=Made in Italia
TTITLE5=Liberta
TTITLE6=La chanson d'Helène
TTITLE7=Manon
TTITLE8=L'isula Piana
TTITLE9=Parle plus bas
TTITLE10=Aurora
TTITLE11=Les montagnes d'Arménie
TTITLE12=Noir et blanc
TTITLE13=Out here on my own
TTITLE14=Parlami d'amore Maria
EXTD=
EXTT0=
EXTT1=
EXTT2=
EXTT3=
EXTT4=
EXTT5=
EXTT6=
EXTT7=
EXTT8=
EXTT9=
EXTT10=
EXTT11=
EXTT12=
EXTT13=
EXTT14=
PLAYORDER=
